# xmcd CD database file generated by Grip 3.2.0
# 
# Track frame offsets:
#       150
#       18595
#       35067
#       47632
#       58985
#       75010
#       89340
#       102887
#       117535
#       133225
#       145070
#       158427
# 
# Disc length: 2285 seconds
# 
# Revision: 4
# Processed by: cddbd v1.5.2PL0 Copyright (c) Steve Scherf et al.
# Submitted via: Grip 3.2.0
# 
DISCID=9b08eb0c
DTITLE=Gilbert Bécaud - His Greatest Hits
DYEAR=1999
DGENRE=Chanson
TTITLE0=Nathalie
TTITLE1=Was wird aus mir
TTITLE2=Frühling in Paris
TTITLE3=Du
TTITLE4=Die Luft von Orly
TTITLE5=Nimm dir doch Zeit
TTITLE6=Wo ist die Liebe zu Hause
TTITLE7=Es ist nie zu spät
TTITLE8=Allein auf deinem Stern
TTITLE9=Komm
TTITLE10=Dann wird alles zu Ende sein
TTITLE11=Überall blühen Rosen
EXTD=
EXTT0=
EXTT1=
EXTT2=
EXTT3=
EXTT4=
EXTT5=
EXTT6=
EXTT7=
EXTT8=
EXTT9=
EXTT10=
EXTT11=
PLAYORDER=
